HIERARCHY
ROOT Hips
{
 OFFSET 0.000000 0.000000 0.000000
 CHANNELS 6 Xposition Yposition Zposition Yrotation Xrotation Zrotation
 JOINT Chest
 {
  OFFSET 0.000000 9.910571 -0.011835
  CHANNELS 3 Yrotation Xrotation Zrotation
  JOINT Chest2
  {
   OFFSET 0.000000 10.789473 0.021497
   CHANNELS 3 Yrotation Xrotation Zrotation
   JOINT Chest3
   {
    OFFSET 0.000000 9.748205 0.000000
    CHANNELS 3 Yrotation Xrotation Zrotation
    JOINT Chest4
    {
     OFFSET 0.000000 9.748205 0.000000
     CHANNELS 3 Yrotation Xrotation Zrotation
     JOINT Neck
     {
      OFFSET 0.000000 13.998479 0.000000
      CHANNELS 3 Yrotation Xrotation Zrotation
      JOINT Head
      {
       OFFSET 0.000000 9.082285 0.051121
       CHANNELS 3 Yrotation Xrotation Zrotation
       End Site
       {
        OFFSET 0.000000 17.246134 0.026702
       }
      }
     }
     JOINT RightCollar
     {
      OFFSET -3.284495 7.824262 0.000000
      CHANNELS 3 Yrotation Xrotation Zrotation
      JOINT RightShoulder
      {
       OFFSET -15.534540 0.000000 0.000000
       CHANNELS 3 Yrotation Xrotation Zrotation
       JOINT RightElbow
       {
        OFFSET 0.000000 -28.251216 0.000000
        CHANNELS 3 Yrotation Xrotation Zrotation
        JOINT RightWrist
        {
         OFFSET 0.000000 -23.418114 0.012537
         CHANNELS 3 Yrotation Xrotation Zrotation
         End Site
         {
          OFFSET 0.000000 -17.723959 0.000000
         }
        }
       }
      }
     }
     JOINT LeftCollar
     {
      OFFSET 3.284495 7.824262 0.000000
      CHANNELS 3 Yrotation Xrotation Zrotation
      JOINT LeftShoulder
      {
       OFFSET 15.534540 0.000000 0.000000
       CHANNELS 3 Yrotation Xrotation Zrotation
       JOINT LeftElbow
       {
        OFFSET 0.000000 -28.251216 0.000000
        CHANNELS 3 Yrotation Xrotation Zrotation
        JOINT LeftWrist
        {
         OFFSET 0.000000 -23.418114 0.012537
         CHANNELS 3 Yrotation Xrotation Zrotation
         End Site
         {
          OFFSET 0.000000 -17.723959 0.000000
         }
        }
       }
      }
     }
    }
   }
  }
 }
 JOINT RightHip
 {
  OFFSET -8.142657 0.057990 0.005917
  CHANNELS 3 Yrotation Xrotation Zrotation
  JOINT RightKnee
  {
   OFFSET 0.000000 -49.716894 0.008478
   CHANNELS 3 Yrotation Xrotation Zrotation
   JOINT RightAnkle
   {
    OFFSET 0.000000 -43.994153 0.004166
    CHANNELS 3 Yrotation Xrotation Zrotation
    JOINT RightToe
    {
     OFFSET 0.000000 -7.619154 17.822051
     CHANNELS 3 Yrotation Xrotation Zrotation
     End Site
     {
      OFFSET 0.000000 -1.595627 7.159905
     }
    }
   }
  }
 }
 JOINT LeftHip
 {
  OFFSET 8.142657 0.057990 0.005917
  CHANNELS 3 Yrotation Xrotation Zrotation
  JOINT LeftKnee
  {
   OFFSET 0.000000 -49.716894 0.008478
   CHANNELS 3 Yrotation Xrotation Zrotation
   JOINT LeftAnkle
   {
    OFFSET 0.000000 -43.994153 0.004166
    CHANNELS 3 Yrotation Xrotation Zrotation
    JOINT LeftToe
    {
     OFFSET 0.000000 -7.619154 17.822051
     CHANNELS 3 Yrotation Xrotation Zrotation
     End Site
     {
      OFFSET 0.000000 -1.595627 7.159905
     }
    }
   }
  }
 }
}
MOTION
Frames: 7
Frame Time: 0.008333
179.040278 103.172276 301.661513 -54.538212 -4.957042 0.185226 -0.896971 2.384567 0.324939 -0.420793 1.056299 0.223583 -0.420793 1.056299 0.223583 -0.315973 0.792071 0.168410 -1.386146 16.963540 -0.719331 -2.315039 -4.682877 -0.847230 -1.742220 3.293155 9.389216 4.063030 -10.241892 -11.705431 16.420210 -1.965890 -6.843144 14.277888 -7.202527 -14.886665 4.529647 1.866777 -9.862506 1.525740 -8.545140 11.053690 1.642979 -14.385756 -9.542972 -47.807770 9.690427 14.697270 -6.650304 8.917415 -3.087535 -2.444830 -0.079130 0.185723 -5.976581 -2.921609 3.593636 0.059798 -0.045005 -0.096380 2.982174 8.854378 2.743293 2.348972 0.057510 -2.524899 2.727493 -2.020542 0.187241 -0.113087 0.151753 -0.076412
179.090758 103.171236 301.664629 -54.520151 -4.978704 0.202899 -0.894407 2.387571 0.316770 -0.418644 1.059290 0.219892 -0.418644 1.059290 0.219892 -0.314355 0.794317 0.165640 -1.399468 16.969642 -0.718839 -2.339854 -4.671461 -0.841741 -1.751502 3.313346 9.386332 4.075405 -10.232154 -11.695540 16.445903 -1.932952 -6.847390 14.294496 -7.171830 -14.849570 4.556303 1.890967 -9.857367 1.495898 -8.531068 10.985382 1.703410 -14.588198 -9.566213 -47.898312 9.660410 14.527258 -6.509707 8.913123 -3.101021 -2.423491 -0.059855 0.186701 -6.158757 -2.932006 3.620107 0.065280 -0.052559 -0.082338 2.891043 8.823087 2.647432 2.427296 0.124744 -2.430659 2.717613 -2.037473 0.168430 -0.120217 0.154187 -0.076910
179.143298 103.171569 301.667068 -54.502657 -5.003271 0.219518 -0.890548 2.390874 0.309209 -0.414300 1.063495 0.215391 -0.414300 1.063495 0.215391 -0.311091 0.797476 0.162259 -1.411271 16.980674 -0.716140 -2.362607 -4.650869 -0.832768 -1.762911 3.348367 9.387681 4.072255 -10.228281 -11.684382 16.478935 -1.914830 -6.858617 14.301667 -7.150692 -14.805249 4.572557 1.912796 -9.848564 1.469183 -8.512254 10.912935 1.674207 -14.839357 -9.587848 -47.894405 9.663830 14.343586 -6.375037 8.912716 -3.117634 -2.418873 -0.045804 0.192191 -6.313101 -2.933474 3.642955 0.069427 -0.060926 -0.069643 2.769222 8.783208 2.547563 2.541665 0.215031 -2.331969 2.694656 -2.060814 0.146065 -0.122185 0.153292 -0.077435
179.196781 103.172019 301.664203 -54.490043 -5.031718 0.230632 -0.887059 2.394167 0.305712 -0.409082 1.068335 0.212083 -0.409082 1.068335 0.212083 -0.307173 0.801110 0.159773 -1.422692 16.993146 -0.711531 -2.385308 -4.627577 -0.820415 -1.769386 3.374937 9.382873 4.057467 -10.228511 -11.668422 16.505143 -1.897833 -6.853614 14.311154 -7.129552 -14.780585 4.580692 1.930513 -9.845770 1.446764 -8.493908 10.845629 1.721659 -15.044922 -9.608864 -47.962090 9.633227 14.173022 -6.256311 8.917796 -3.130308 -2.414363 -0.040231 0.200823 -6.446641 -2.926639 3.660941 0.074527 -0.068301 -0.059508 2.632841 8.733117 2.463243 2.680858 0.332343 -2.252550 2.664017 -2.096657 0.129660 -0.122021 0.152121 -0.076843
179.248787 103.172854 301.655849 -54.475282 -5.063103 0.238685 -0.883688 2.401977 0.301689 -0.403263 1.075161 0.208778 -0.403263 1.075161 0.208778 -0.302806 0.806234 0.157288 -1.435929 17.002860 -0.703813 -2.412466 -4.609347 -0.801640 -1.786032 3.401180 9.388058 4.040746 -10.225026 -11.661532 16.523090 -1.906444 -6.846499 14.328638 -7.103360 -14.747872 4.585416 1.947190 -9.842542 1.417121 -8.479816 10.784911 1.684299 -15.297578 -9.624550 -47.944800 9.628363 13.976729 -6.160707 8.923599 -3.138592 -2.410067 -0.031970 0.206119 -6.563999 -2.921776 3.681951 0.077509 -0.073621 -0.054631 2.512136 8.674923 2.400144 2.802471 0.468678 -2.195064 2.628344 -2.140213 0.115083 -0.114890 0.149741 -0.071688
179.299793 103.173556 301.641315 -54.463879 -5.096278 0.241328 -0.882618 2.407842 0.297860 -0.397986 1.081147 0.207754 -0.397986 1.081147 0.207754 -0.298848 0.810726 0.156515 -1.446159 17.012069 -0.695699 -2.434191 -4.592065 -0.783181 -1.798831 3.429935 9.384224 4.021639 -10.230045 -11.644926 16.531266 -1.920118 -6.839933 14.341921 -7.082371 -14.727281 4.592568 1.965135 -9.843113 1.387790 -8.457085 10.729026 1.707424 -15.516038 -9.636260 -48.004771 9.593892 13.786336 -6.088693 8.928919 -3.141503 -2.403262 -0.024194 0.209866 -6.655765 -2.917212 3.702401 0.079009 -0.077799 -0.052402 2.401389 8.611038 2.348153 2.903002 0.614779 -2.138535 2.609820 -2.188763 0.095776 -0.107446 0.148951 -0.065697
179.346385 103.173982 301.624805 -54.461923 -5.129371 0.246852 -0.874598 2.417446 0.294709 -0.390817 1.086272 0.204748 -0.390817 1.086272 0.204748 -0.293468 0.814574 0.154251 -1.457249 17.020685 -0.683782 -2.458836 -4.575816 -0.757380 -1.813023 3.455538 9.382714 3.993611 -10.229544 -11.622738 16.545422 -1.935470 -6.833829 14.341065 -7.069929 -14.709107 4.597304 1.984170 -9.842071 1.355414 -8.437182 10.675890 1.654903 -15.775597 -9.642811 -47.989114 9.576062 13.569277 -6.033284 8.935008 -3.149642 -2.387171 -0.018122 0.217896 -6.726961 -2.918483 3.712055 0.080102 -0.078112 -0.045966 2.306933 8.551601 2.285446 2.982613 0.753140 -2.056219 2.605917 -2.232569 0.055533 -0.100385 0.145332 -0.056467
